<?xml version="1.0" standalone="no"?>
<!DOCTYPE svg PUBLIC "-//W3C//DTD SVG 20010904//EN"
 "http://www.w3.org/TR/2001/REC-SVG-20010904/DTD/svg10.dtd">
<svg version="1.0" xmlns="http://www.w3.org/2000/svg"
 width="1200.000000pt" height="1200.000000pt" viewBox="0 0 1200.000000 1200.000000"
 preserveAspectRatio="xMidYMid meet">
<metadata>
Created by potrace 1.11, written by Peter Selinger 2001-2013
</metadata>
<g transform="translate(0.000000,1200.000000) scale(0.100000,-0.100000)"
fill="#000000" stroke="none">
<path d="M5210 10459 c-212 -24 -434 -86 -640 -178 -113 -50 -117 -51 -225
-55 -100 -3 -121 -7 -241 -49 -407 -143 -742 -331 -1029 -578 -426 -366 -736
-830 -855 -1278 -19 -71 -57 -167 -115 -289 -82 -172 -95 -211 -62 -184 8 7
16 9 19 6 3 -3 21 13 39 34 19 21 45 45 57 51 22 12 23 11 16 -11 -30 -95 -37
-139 -41 -278 -6 -181 13 -296 74 -460 52 -138 165 -355 231 -440 11 -14 38
-87 61 -162 23 -76 64 -192 91 -260 49 -120 49 -123 31 -143 -79 -86 -79 -253
0 -470 57 -159 183 -376 273 -473 41 -44 44 -53 55 -132 29 -205 93 -558 120
-667 121 -480 360 -855 736 -1155 298 -238 661 -432 1205 -644 80 -30 168 -65
196 -76 l51 -20 6 -158 c4 -88 2 -243 -3 -345 -10 -182 -11 -188 -47 -273 -20
-48 -45 -94 -56 -103 -11 -9 -17 -21 -14 -26 11 -17 -288 -173 -549 -286 -385
-167 -705 -270 -1489 -481 -720 -193 -996 -289 -1325 -457 -74 -38 -180 -98
-235 -134 -55 -35 -125 -78 -156 -95 -31 -17 -94 -67 -140 -110 l-84 -79 183
-1 183 0 78 45 c102 57 307 160 440 220 218 98 369 153 806 296 72 23 147 53
167 65 21 13 41 24 45 24 10 1 83 66 83 75 0 3 7 13 15 21 8 9 15 24 15 34 0
14 11 22 43 30 598 156 1069 312 1386 457 l83 38 42 -37 c22 -21 46 -38 52
-38 6 0 18 -7 25 -16 8 -9 30 -27 49 -40 19 -13 67 -46 105 -74 64 -45 230
-133 329 -174 63 -26 232 -73 345 -96 131 -26 363 -30 387 -5 25 24 53 27 180
16 153 -14 502 -14 635 -1 323 32 578 102 906 246 l123 54 21 -21 c12 -12 46
-32 76 -46 75 -34 146 -28 241 19 105 54 122 54 198 8 36 -21 104 -73 152
-113 74 -63 328 -237 347 -237 3 0 23 -11 45 -25 128 -81 426 -238 884 -466
l519 -259 823 0 824 0 0 2673 c0 1469 -4 2667 -8 2660 -5 -8 -13 -9 -22 -3 -8
6 -19 10 -25 9 -5 0 2 -6 17 -15 l28 -14 -21 -21 c-17 -17 -18 -23 -7 -36 11
-14 10 -15 -12 -8 -35 11 -37 15 -16 31 11 7 17 17 13 20 -8 8 -57 -42 -57
-57 0 -5 7 -9 15 -9 17 0 20 -16 5 -25 -6 -4 -8 -11 -5 -16 4 -5 0 -9 -7 -9
-9 0 -9 -3 2 -10 12 -8 9 -10 -12 -10 -28 0 -37 -13 -18 -25 14 -9 12 -35 -2
-35 -7 0 -14 -10 -15 -22 -4 -68 -17 -108 -35 -114 -20 -6 -19 -31 1 -26 16 3
14 -13 -4 -28 -8 -7 -12 -16 -9 -21 3 -5 2 -19 -1 -30 -6 -17 -9 -19 -17 -8
-6 9 -7 1 -3 -26 7 -40 7 -40 -13 -20 -11 11 -18 23 -16 27 3 4 0 9 -6 13 -5
3 -10 -1 -10 -9 0 -9 -4 -16 -9 -16 -13 0 -23 -50 -13 -63 12 -15 11 -47 0
-47 -5 0 -6 10 -3 23 5 17 4 19 -4 7 -6 -8 -11 -29 -11 -47 0 -26 -4 -31 -20
-30 -22 1 -27 22 -7 30 7 3 5 6 -5 6 -10 1 -18 -6 -18 -15 0 -8 -4 -13 -9 -9
-5 3 -12 1 -16 -5 -3 -5 -1 -10 4 -10 6 0 11 -7 11 -16 0 -9 -5 -12 -12 -8 -7
4 -5 -2 5 -13 16 -19 16 -21 2 -27 -9 -3 -26 -6 -36 -6 -11 0 -17 -5 -14 -10
4 -6 11 -8 16 -5 5 3 6 -1 3 -9 -4 -10 4 -16 25 -21 17 -4 31 -11 31 -15 0 -5
6 -7 13 -5 6 3 35 -4 62 -15 l50 -20 -40 6 c-22 4 -68 15 -102 24 -44 12 -64
14 -67 6 -3 -7 -8 -6 -15 4 -6 8 -11 10 -11 5 0 -6 5 -16 12 -23 9 -9 9 -12 0
-12 -7 0 -12 -10 -12 -22 0 -11 -12 -36 -26 -55 -14 -19 -23 -41 -20 -49 4 -9
-2 -18 -15 -23 -21 -7 -21 -8 -3 -25 17 -18 17 -18 -6 -11 -22 7 -23 6 -11 -9
12 -14 12 -16 -3 -10 -12 5 -16 0 -16 -20 0 -14 -5 -26 -11 -26 -6 0 -9 7 -5
15 3 9 0 15 -9 15 -8 0 -15 -9 -15 -21 0 -13 -4 -18 -12 -13 -7 4 -8 3 -4 -4
4 -6 -6 -19 -21 -29 -15 -9 -30 -19 -33 -21 -2 -1 2 -7 10 -12 9 -6 18 -3 27
8 7 9 13 13 13 7 1 -5 3 -21 6 -35 3 -21 2 -23 -9 -10 -6 8 -25 15 -42 15 -25
0 -30 -4 -31 -25 -2 -45 -4 -49 -26 -52 -15 -2 -22 -9 -20 -20 1 -9 -2 -19 -8
-23 -5 -3 -10 -15 -10 -26 0 -10 -9 -28 -19 -38 -13 -13 -16 -21 -8 -24 7 -2
1 -9 -12 -16 -13 -7 -21 -8 -17 -3 7 12 -20 10 -31 -3 -4 -4 -2 -5 5 -1 18 10
16 -32 -3 -50 -8 -9 -20 -12 -26 -8 -6 3 -3 -6 7 -22 17 -26 17 -27 2 -21 -10
3 -23 0 -30 -6 -7 -7 -21 -16 -30 -20 -10 -3 -18 -13 -18 -22 0 -18 16 -20 23
-2 3 7 6 7 6 1 1 -6 -8 -19 -19 -29 -15 -14 -20 -15 -21 -4 0 14 -19 -25 -23
-50 -2 -8 -9 -19 -17 -25 -8 -6 -25 -36 -39 -66 -13 -30 -36 -65 -50 -77 -14
-11 -22 -24 -18 -28 15 -15 -11 -43 -34 -37 -22 5 -22 5 -5 -12 9 -10 17 -21
17 -26 0 -9 -31 -24 -43 -21 -5 1 -6 -3 -2 -9 4 -6 1 -17 -5 -25 -7 -8 -9 -15
-5 -15 4 0 2 -7 -5 -15 -15 -18 -34 -20 -25 -2 4 6 -7 -3 -23 -20 -15 -18 -37
-33 -47 -33 -10 0 -16 -3 -12 -6 3 -4 -1 -20 -9 -36 -8 -16 -12 -34 -8 -40 4
-6 3 -9 -2 -5 -5 3 -18 -1 -29 -9 -10 -8 -13 -14 -7 -14 25 0 11 -21 -17 -26
-17 -4 -32 -13 -35 -21 -3 -8 -1 -11 4 -8 6 3 7 -1 4 -10 -5 -11 -10 -13 -19
-5 -9 8 -14 5 -18 -10 -3 -11 -5 -23 -5 -27 0 -3 -7 -10 -16 -15 -8 -5 -13
-15 -10 -22 3 -8 -4 -16 -18 -20 l-23 -6 28 -21 c39 -30 33 -45 -8 -20 -33 19
-36 20 -42 3 -4 -9 -17 -28 -30 -41 -13 -13 -23 -30 -23 -38 0 -8 -4 -11 -10
-8 -5 3 -10 0 -10 -8 0 -8 -13 -20 -30 -27 -16 -7 -30 -20 -30 -29 1 -14 2
-14 14 2 7 9 17 17 21 17 5 0 -4 -13 -19 -29 -18 -19 -34 -27 -47 -24 -10 3
-19 0 -19 -6 0 -5 7 -8 15 -5 23 9 18 -2 -14 -35 -16 -16 -27 -31 -25 -34 2
-2 -4 -4 -14 -4 -9 0 -21 5 -25 11 -5 6 -6 0 -3 -14 6 -30 0 -41 -34 -58 -15
-7 -17 -10 -5 -7 19 6 19 5 3 -11 -13 -14 -20 -15 -31 -5 -12 9 -16 8 -21 -4
-3 -8 -1 -15 4 -15 6 0 10 -5 10 -12 0 -6 -3 -8 -6 -5 -9 9 -44 -11 -44 -24 0
-6 7 -8 16 -5 10 4 14 1 11 -6 -2 -7 -12 -12 -21 -12 -9 1 -16 -1 -16 -5 0 -3
-4 -13 -10 -21 -7 -12 -12 -11 -32 5 -13 11 11 -15 52 -58 76 -79 86 -107 14
-39 -85 79 -91 83 -91 68 0 -8 4 -13 9 -10 13 9 9 -6 -7 -22 -12 -12 -15 -12
-15 -2 0 7 -10 0 -21 -17 -12 -16 -19 -22 -15 -12 7 23 -11 22 -24 -2 -7 -13
-7 -22 0 -26 5 -3 10 -12 9 -18 0 -8 -2 -8 -6 1 -4 10 -11 8 -30 -10 -20 -19
-25 -20 -33 -8 -9 13 -10 13 -10 0 0 -8 4 -21 9 -29 8 -13 12 -13 28 0 17 13
17 13 4 -4 -8 -10 -22 -16 -33 -14 -10 3 -18 1 -18 -4 0 -5 -12 -9 -27 -9 -21
0 -24 -3 -13 -9 8 -6 18 -7 23 -4 5 3 8 0 5 -8 -3 -8 -17 -13 -31 -13 -21 1
-25 -2 -17 -12 9 -9 7 -12 -7 -10 -22 4 -48 -21 -64 -59 -6 -17 -13 -25 -16
-18 -2 7 -11 9 -19 6 -13 -5 -13 -7 -3 -14 8 -4 10 -11 6 -15 -3 -4 -14 -1
-24 7 -10 8 -14 9 -10 2 4 -7 1 -27 -8 -45 -8 -18 -13 -25 -11 -16 5 16 -21
34 -32 23 -3 -3 0 -5 6 -5 7 0 12 -5 12 -11 0 -6 -8 -8 -19 -4 -15 4 -18 2
-15 -12 3 -10 -2 -27 -11 -38 -9 -11 -14 -13 -10 -5 4 8 0 7 -9 -4 -8 -10 -22
-16 -31 -13 -17 7 -21 -8 -4 -19 7 -4 -1 -14 -20 -26 -17 -11 -31 -24 -31 -29
0 -5 -7 -9 -15 -9 -9 0 -18 -7 -21 -15 -4 -8 -15 -15 -25 -15 -10 0 -19 -5
-19 -11 0 -5 -4 -8 -9 -5 -5 3 -8 -2 -7 -11 0 -10 -3 -18 -9 -18 -19 0 -116
-75 -98 -75 4 0 -6 -8 -24 -16 -22 -11 -30 -21 -26 -32 4 -14 3 -15 -5 -2 -9
12 -14 11 -30 -8 -11 -12 -24 -22 -30 -22 -6 0 -9 -6 -7 -12 5 -15 -2 -27 -29
-48 -17 -14 -18 -13 -12 7 4 12 2 24 -3 28 -7 4 -8 -1 -4 -11 4 -12 3 -15 -5
-10 -7 4 -20 2 -29 -4 -16 -10 -15 -11 5 -6 19 4 22 1 17 -12 -4 -9 -10 -25
-12 -35 -3 -9 -11 -17 -18 -17 -7 0 -18 -7 -25 -15 -15 -18 -34 -20 -24 -2 4
6 -2 4 -14 -6 -11 -11 -26 -16 -33 -12 -8 6 -10 -1 -7 -24 3 -20 1 -28 -5 -22
-5 5 -17 7 -26 4 -13 -5 -13 -2 3 15 11 12 14 22 8 22 -29 0 -39 -83 -12 -100
8 -5 11 -10 6 -10 -5 0 -17 7 -27 15 -15 14 -18 14 -32 0 -19 -18 -31 -20 -22
-3 4 7 0 5 -8 -4 -8 -11 -21 -15 -35 -11 -18 4 -21 2 -16 -11 4 -11 1 -16 -11
-16 -10 0 -13 5 -9 12 5 8 2 9 -9 5 -10 -3 -17 -2 -17 3 0 6 7 10 16 10 8 0
12 4 9 10 -6 10 -43 -6 -56 -24 -4 -4 -24 4 -45 18 -36 24 -40 25 -51 9 -7 -9
-13 -13 -13 -7 0 8 -59 47 -70 45 -25 -2 -300 340 -300 374 0 4 -6 13 -14 19
-25 20 -85 469 -125 946 -63 737 -50 1397 44 2310 21 203 30 254 65 370 23 78
51 149 66 170 140 189 279 443 333 605 83 250 87 506 11 656 -20 39 -21 46 -9
157 15 149 15 593 0 737 -48 453 -145 803 -317 1143 -154 304 -278 460 -549
691 -233 199 -354 266 -895 498 -322 138 -735 248 -1075 288 -140 16 -467 18
-595 4z m806 -2145 c173 -115 539 -282 664 -304 25 -4 53 -11 63 -15 29 -12
19 7 -30 64 -26 30 -41 50 -33 45 8 -5 58 -37 110 -72 52 -35 107 -66 122 -69
15 -3 33 -12 39 -19 40 -49 38 20 -6 153 -19 59 -33 108 -32 110 2 1 21 -21
43 -49 54 -73 361 -384 369 -376 4 3 1 16 -5 28 -7 14 -8 20 -1 16 5 -4 15 2
20 13 13 24 14 161 1 216 -5 22 -8 41 -6 42 7 7 253 -443 290 -531 5 -11 50
31 59 56 2 7 8 10 12 6 6 -5 -29 -146 -51 -202 -4 -11 -1 -16 12 -16 18 -1 18
-1 0 -15 -31 -23 -11 -18 53 14 108 55 273 199 332 290 18 28 30 39 33 30 3
-8 10 -68 17 -134 28 -294 2 -719 -53 -847 -29 -68 -50 -172 -31 -153 6 6 40
55 76 110 113 174 243 285 340 292 73 6 110 -19 148 -100 100 -215 31 -571
-180 -929 -94 -160 -191 -286 -300 -391 -144 -139 -217 -158 -321 -83 -62 44
-84 47 -70 10 31 -80 110 -136 190 -136 82 0 155 39 264 141 33 31 57 49 54
40 -130 -359 -220 -1238 -204 -1989 15 -715 62 -1133 184 -1633 l20 -77 -52
-41 c-28 -23 -99 -70 -158 -105 -358 -212 -748 -356 -1143 -420 -151 -25 -476
-25 -632 -1 -113 18 -339 75 -396 101 -18 8 -126 44 -242 81 -115 36 -247 85
-292 107 l-82 41 29 36 c37 44 63 123 91 276 18 96 22 159 23 315 0 107 -3
216 -7 241 l-8 46 43 -8 c73 -14 320 -30 332 -21 6 5 54 23 106 41 262 90 624
299 890 515 102 82 316 292 405 396 239 282 454 630 568 920 79 202 154 477
145 533 -4 22 -4 22 -16 -3 -6 -14 -46 -113 -88 -220 -314 -805 -734 -1353
-1344 -1756 -151 -100 -315 -192 -556 -312 l-181 -91 -99 30 c-299 89 -806
290 -1082 428 -394 197 -710 432 -899 666 -163 202 -285 420 -357 640 -50 152
-79 285 -131 605 -25 151 -56 343 -71 425 -57 331 -128 581 -189 670 -82 121
-264 683 -335 1035 -30 152 -53 331 -49 384 2 17 -1 38 -6 46 -7 11 -3 11 15
-2 58 -40 130 -78 160 -85 37 -7 37 -20 0 117 -20 75 -49 232 -44 238 1 2 28
-18 60 -44 71 -57 189 -115 306 -148 91 -26 230 -45 193 -26 -17 9 -14 10 13
5 44 -6 40 5 -12 38 -61 38 -171 142 -228 214 l-46 59 106 -53 c113 -56 274
-103 351 -103 24 0 86 -13 137 -30 93 -30 242 -60 293 -60 57 0 56 17 -2 45
-108 50 -314 217 -408 329 -33 38 -59 74 -59 78 0 5 26 -13 59 -40 197 -164
648 -343 921 -366 64 -6 64 -5 23 7 -44 13 -66 27 -42 27 7 0 -9 15 -36 34
-28 19 -72 57 -100 86 l-50 52 60 -40 c103 -67 135 -78 135 -45 0 14 4 12 25
-7 14 -13 28 -20 32 -16 4 3 -7 41 -24 84 -80 198 -124 314 -120 318 2 3 29
-16 60 -40 124 -102 361 -239 464 -269 46 -14 52 -14 57 0 4 9 -1 28 -10 42
-25 38 -192 274 -252 357 -29 39 -52 74 -52 78 0 3 35 -18 78 -47 208 -145
555 -318 686 -343 30 -5 37 -4 31 6 -10 17 27 -4 44 -24 25 -29 32 -4 10 32
-30 49 -133 191 -225 308 -40 52 -74 98 -74 101 0 2 30 -17 68 -44 170 -122
397 -253 541 -314 77 -32 132 -37 74 -6 -18 10 -33 22 -33 27 0 16 10 12 60
-25 46 -34 75 -45 68 -26 -1 6 -64 77 -138 158 -137 150 -217 243 -207 243 2
0 51 -29 108 -65 238 -149 601 -307 702 -304 18 0 26 3 20 6 -7 2 -13 9 -13
14 0 4 7 6 15 3 8 -4 15 -3 15 0 0 8 -169 211 -268 324 -35 39 -62 72 -60 72
2 0 49 -30 104 -66z m-3336 -2185 c0 -6 29 -63 64 -127 70 -128 84 -179 141
-507 14 -82 28 -161 31 -175 6 -34 -39 38 -115 182 -136 258 -184 448 -149
597 6 28 15 48 20 45 4 -3 8 -10 8 -15z m9263 -895 c23 -8 22 -20 -3 -27 -13
-3 -18 -1 -13 5 3 6 -3 18 -13 26 -10 8 -12 12 -4 8 8 -3 23 -9 33 -12z m17
-58 c0 -3 -4 -8 -10 -11 -5 -3 -10 -1 -10 4 0 6 5 11 10 11 6 0 10 -2 10 -4z
m-208 -384 c-7 -2 -12 -8 -12 -13 0 -6 4 -7 10 -4 5 3 18 2 27 -4 15 -8 12 -9
-12 -6 -16 2 -33 4 -38 4 -4 1 -2 10 5 20 7 11 17 17 22 14 6 -4 5 -8 -2 -11z
m-5 -64 c-3 -8 -6 -5 -6 6 -1 11 2 17 5 13 3 -3 4 -12 1 -19z m73 -242 c0 -11
-19 -15 -25 -6 -3 5 1 10 9 10 9 0 16 -2 16 -4z m-381 -267 c3 -12 1 -12 -14
1 -17 14 -18 13 -12 -2 6 -18 -3 -24 -16 -11 -9 9 13 35 26 30 6 -2 13 -10 16
-18z m-71 -96 c-4 -37 -24 -40 -24 -3 0 19 5 30 13 30 10 0 13 -9 11 -27z
m-66 -85 c-7 -7 -12 -8 -12 -2 0 14 12 26 19 19 2 -3 -1 -11 -7 -17z m-502
-727 c0 -6 -4 -13 -10 -16 -5 -3 -10 1 -10 9 0 9 5 16 10 16 6 0 10 -4 10 -9z
m-37 -38 c-7 -3 -13 -13 -13 -24 0 -10 -7 -19 -15 -19 -8 0 -15 4 -15 10 0 13
42 51 49 44 3 -4 0 -9 -6 -11z m-143 -349 c0 -2 -9 0 -20 6 -11 6 -20 13 -20
16 0 2 9 0 20 -6 11 -6 20 -13 20 -16z m-250 -719 c8 -11 -20 14 -63 55 -42
41 -77 79 -77 85 0 10 111 -101 140 -140z m-556 10 c-4 -8 -11 -15 -16 -15 -6
0 -5 6 2 15 7 8 14 15 16 15 2 0 1 -7 -2 -15z m-1774 -614 c0 -17 -4 -32 -10
-36 -5 -3 -7 -12 -4 -20 3 -8 -1 -24 -10 -37 -9 -12 -16 -29 -16 -37 0 -8 -27
-57 -60 -108 -33 -52 -60 -99 -60 -104 0 -19 -316 -154 -495 -212 -296 -96
-599 -135 -960 -123 -110 3 -219 9 -242 12 l-42 7 15 29 c19 37 21 184 2 192
-2 0 -12 7 -23 14 -11 6 -30 16 -42 22 -39 17 -26 18 54 4 220 -39 488 -42
720 -9 362 51 836 223 1113 404 57 37 60 37 60 2z m-2659 -136 c135 -68 135
-79 -3 -34 -114 37 -240 123 -216 147 8 8 20 4 48 -18 20 -16 97 -59 171 -95z"/>
<path d="M5927 7419 c-86 -9 -211 -40 -260 -65 -35 -18 -77 -53 -77 -65 0 -3
58 -4 128 -1 221 8 574 -26 795 -78 49 -11 149 -40 222 -65 73 -25 136 -45
139 -45 3 0 6 11 6 24 0 40 -75 106 -180 158 -159 78 -318 120 -521 138 -127
11 -140 11 -252 -1z"/>
<path d="M3795 7191 c26 -6 21 -8 -30 -14 -138 -15 -358 -97 -495 -185 -137
-88 -267 -228 -320 -343 -12 -27 -20 -65 -19 -99 l0 -55 41 50 c216 261 465
412 956 580 7 3 10 10 6 16 -5 8 1 10 20 7 25 -5 36 5 18 16 -15 9 -156 36
-182 35 -23 -1 -22 -2 5 -8z"/>
<path d="M5825 7070 c-150 -32 -273 -122 -320 -232 -9 -24 -12 -45 -6 -59 8
-22 9 -22 32 13 50 74 202 170 292 185 l37 6 -16 -44 c-22 -58 -31 -283 -15
-376 17 -99 76 -267 117 -334 40 -66 107 -139 156 -169 36 -22 78 -27 78 -9 0
7 16 9 49 4 63 -9 91 6 163 83 61 67 126 183 158 287 29 96 37 226 17 285 -9
24 -15 46 -13 47 2 2 33 -28 69 -67 67 -73 169 -214 205 -286 12 -23 29 -49
37 -58 15 -15 11 -22 -48 -94 -35 -42 -77 -97 -93 -121 -26 -40 -27 -44 -11
-56 28 -20 57 -6 118 54 39 40 62 74 79 116 28 73 32 130 10 129 -11 -1 -17 9
-18 30 -7 84 -115 256 -234 372 -94 92 -167 143 -285 203 -135 67 -236 93
-388 97 -71 2 -148 -1 -170 -6z"/>
<path d="M3735 6785 c-227 -50 -434 -224 -557 -470 -57 -113 -90 -228 -92
-321 0 -45 -4 -80 -9 -77 -19 12 -16 -32 6 -81 45 -98 173 -208 221 -190 33
13 13 45 -84 135 -70 65 -99 98 -95 109 4 8 19 65 35 125 53 206 128 352 244
473 56 60 169 152 185 152 4 0 7 -57 7 -127 2 -423 166 -721 406 -736 64 -5
67 -4 96 27 41 42 89 142 114 235 31 113 31 324 1 446 -12 50 -25 102 -28 118
-3 15 -21 45 -41 67 -99 110 -246 151 -409 115z m64 -243 c22 -32 19 -68 -8
-89 -24 -18 -39 -16 -65 10 -28 28 -25 70 7 92 30 21 43 19 66 -13z"/>
<path d="M4755 6103 c-12 -170 -52 -427 -110 -715 -33 -161 -33 -202 4 -259
30 -48 97 -109 119 -109 18 0 9 27 -34 110 -19 35 -34 75 -34 89 0 14 15 104
34 200 60 304 81 578 56 712 -17 86 -27 78 -35 -28z"/>
<path d="M5870 3906 c-41 -19 -129 -58 -195 -89 -140 -64 -266 -107 -385 -133
-95 -21 -403 -26 -562 -10 -108 11 -116 -2 -25 -44 175 -82 484 -77 767 12
165 51 449 204 484 260 23 37 -7 38 -84 4z"/>
<path d="M11660 4731 c0 -5 5 -13 10 -16 6 -3 10 -2 10 4 0 5 -4 13 -10 16 -5
3 -10 2 -10 -4z"/>
<path d="M11110 3850 c0 -5 5 -10 10 -10 6 0 10 5 10 10 0 6 -4 10 -10 10 -5
0 -10 -4 -10 -10z"/>
<path d="M10808 3423 c6 -2 9 -10 6 -15 -4 -7 -2 -8 5 -4 13 9 5 26 -12 25 -9
0 -8 -2 1 -6z"/>
<path d="M10787 3363 c-3 -5 5 -8 18 -8 13 0 21 3 18 8 -2 4 -10 7 -18 7 -8 0
-16 -3 -18 -7z"/>
<path d="M10674 3239 c-3 -6 -2 -15 4 -21 6 -6 11 -2 15 11 5 22 -7 29 -19 10z"/>
<path d="M10642 3180 c0 -14 2 -19 5 -12 2 6 2 18 0 25 -3 6 -5 1 -5 -13z"/>
<path d="M10085 2530 c3 -5 8 -10 11 -10 2 0 4 5 4 10 0 6 -5 10 -11 10 -5 0
-7 -4 -4 -10z"/>
<path d="M9063 1616 c-24 -11 -31 -26 -12 -26 11 0 44 29 38 33 -2 2 -14 -2
-26 -7z"/>
</g>
</svg>
